HIERARCHY
ROOT Hips
{
	OFFSET -3.958830 18.904000 13.208200
	CHANNELS 6 Xposition Yposition Zposition Zrotation Yrotation Xrotation 
	JOINT LHipJoint
	{
		OFFSET 0.000000 0.000000 0.000000
		CHANNELS 3 Zrotation Yrotation Xrotation
		JOINT LeftUpLeg
		{
			OFFSET 1.800000 -1.400000 0.085000
			CHANNELS 3 Zrotation Yrotation Xrotation
			JOINT LeftLeg
			{
				OFFSET 2.215000 -6.000000 0.000000
				CHANNELS 3 Zrotation Yrotation Xrotation
				JOINT LeftFoot
				{
					OFFSET 2.500000 -6.900000 0.000000
					CHANNELS 3 Zrotation Yrotation Xrotation
					JOINT LeftToeBase
					{
						OFFSET 0.200000 -0.500000 1.950000
						CHANNELS 3 Zrotation Yrotation Xrotation
						End Site
						{
							OFFSET 0.000000 0.000000 0.000000
						}
					}
				}
			}
		}
	}
	JOINT RHipJoint
	{
		OFFSET 0.000000 0.000000 0.000000
		CHANNELS 3 Zrotation Yrotation Xrotation
		JOINT RightUpLeg
		{
			OFFSET -1.800000 -1.400000 0.085000
			CHANNELS 3 Zrotation Yrotation Xrotation
			JOINT RightLeg
			{
				OFFSET -2.215000 -6.000000 0.000000
				CHANNELS 3 Zrotation Yrotation Xrotation
				JOINT RightFoot
				{
					OFFSET -2.500000 -6.900000 0.000000
					CHANNELS 3 Zrotation Yrotation Xrotation
					JOINT RightToeBase
					{
						OFFSET -0.200000 -0.500000 1.950000
						CHANNELS 3 Zrotation Yrotation Xrotation
						End Site
						{
							OFFSET 0.000000 0.000000 0.000000
						}
					}
				}
			}
		}
	}
	JOINT LowerBack
	{
		OFFSET 0.000000 0.000000 0.000000
		CHANNELS 3 Zrotation Yrotation Xrotation
		JOINT Spine
		{
			OFFSET -0.087000 1.940000 -0.288900
			CHANNELS 3 Zrotation Yrotation Xrotation
			JOINT Spine1
			{
				OFFSET 0.000000 1.950000 0.060000
				CHANNELS 3 Zrotation Yrotation Xrotation
				JOINT Neck
				{
					OFFSET 0.000000 0.000000 0.000000
					CHANNELS 3 Zrotation Yrotation Xrotation
					JOINT Neck1
					{
						OFFSET 0.000000 1.600000 0.340000
						CHANNELS 3 Zrotation Yrotation Xrotation
						JOINT Head
						{
							OFFSET 0.000000 1.667000 -0.240000
							CHANNELS 3 Zrotation Yrotation Xrotation
							End Site
							{
								OFFSET 0.000000 0.000000 0.000000
							}
						}
					}
				}
				JOINT LeftShoulder
				{
					OFFSET 0.000000 0.000000 0.000000
					CHANNELS 3 Zrotation Yrotation Xrotation
					JOINT LeftArm
					{
						OFFSET 2.700000 1.550000 -0.730000
						CHANNELS 3 Zrotation Yrotation Xrotation
						JOINT LeftForeArm
						{
							OFFSET 5.450000 0.000000 0.000000
							CHANNELS 3 Zrotation Yrotation Xrotation
							JOINT LeftHand
							{
								OFFSET 3.450000 0.000000 0.000000
								CHANNELS 3 Zrotation Yrotation Xrotation
								JOINT LeftHandIndex1
								{
									OFFSET 0.750000 0.000000 0.000000
									CHANNELS 3 Zrotation Yrotation Xrotation
									End Site
									{
										OFFSET 0.000000 0.000000 0.000000
									}
								}
							}
						}
					}
				}
				JOINT RightShoulder
				{
					OFFSET 0.000000 0.000000 0.000000
					CHANNELS 3 Zrotation Yrotation Xrotation
					JOINT RightArm
					{
						OFFSET -2.700000 1.550000 -0.730000
						CHANNELS 3 Zrotation Yrotation Xrotation
						JOINT RightForeArm
						{
							OFFSET -5.450000 0.000000 0.000000
							CHANNELS 3 Zrotation Yrotation Xrotation
							JOINT RightHand
							{
								OFFSET -3.450000 0.000000 0.000000
								CHANNELS 3 Zrotation Yrotation Xrotation
								JOINT RightHandIndex1
								{
									OFFSET -0.750000 0.000000 0.000000
									CHANNELS 3 Zrotation Yrotation Xrotation
									End Site
									{
										OFFSET 0.000000 0.000000 0.000000
									}
								}
							}
						}
					}
				}
			}
		}
	}
}
MOTION
Frames: 12
Frame Time: 0.016667
-0.563180 16.184610 -1.190960 -3.499194 -41.582695 0.753973 -15.083218 13.977866 2.599776 4.916258 -0.574997 -6.006819 -4.031626 7.040178 21.775783 0.176066 5.109984 3.053386 0.153430 -0.105470 0.049780 18.178532 -10.765731 3.209292 -8.442334 1.360502 -19.337565 5.635191 -2.807079 1.528311 0.104627 -2.731678 3.608013 -0.106070 0.552950 0.330090 -3.181647 -2.302273 -7.236585 6.275227 -3.309734 10.156068 -0.553138 -2.609743 1.321673 3.300724 -1.614119 -7.061341 -3.520683 5.618242 30.699430 -2.621940 8.304910 4.896470 -15.597526 10.716665 2.194983 -66.482034 -15.519334 19.584485 139.765731 -55.856370 -118.260994 -3.735828 3.652270 0.094220 0.387170 -0.198970 0.336430 9.669070 -9.357106 1.660128 63.458161 10.375152 6.035691 -141.624967 40.046190 -102.861073 2.032641 -2.293002 -0.107880 -0.025500 -0.108150 0.067800 
-0.568680 16.184360 -1.195980 -3.344534 -41.492688 -0.120876 -15.093628 14.029806 2.611586 5.017249 -0.454198 -5.208814 -3.924023 7.031531 21.624605 0.175257 5.169640 3.043221 0.159610 -0.092970 0.046040 18.163820 -10.805557 3.138155 -8.604251 1.180650 -18.799387 5.520003 -2.962185 2.442996 0.106394 -2.782456 3.593403 -0.088550 0.574510 0.337500 -3.123667 -2.377583 -7.212956 5.867845 -3.359105 10.779025 -0.779912 -2.698070 2.494417 3.492067 -1.430496 -7.281114 -3.235479 5.555815 30.574978 -2.594890 8.303170 4.782530 -14.178801 10.192662 2.416618 -67.184938 -17.776512 21.306391 138.406807 -52.723653 -113.250833 -3.768040 3.611467 0.081010 0.407750 -0.208560 0.343220 7.912058 -9.005857 1.973624 63.965749 11.642829 6.896345 -141.427288 38.599951 -100.721790 2.009822 -2.319379 -0.111700 -0.011730 -0.102980 0.071550 
-0.571010 16.186630 -1.209970 -3.275113 -41.223716 -2.133579 -15.123804 14.141213 2.623835 5.552622 -0.223191 -3.348981 -3.789194 7.119391 21.547963 0.189764 5.351812 2.996991 0.194080 -0.037210 0.054570 18.135381 -10.844483 2.987012 -8.836414 0.783685 -17.310654 5.360689 -3.262108 4.102345 0.097960 -2.923803 3.546697 -0.034670 0.601070 0.347660 -3.007281 -2.619473 -7.158691 5.313772 -3.517510 12.349193 -1.212128 -2.938743 5.899226 3.766956 -1.180617 -7.901306 -2.924371 5.378038 29.969378 -2.583420 8.124420 4.244470 -11.235099 8.313652 3.184737 -68.095119 -23.333950 24.237642 135.467420 -46.116728 -102.257427 -3.829671 3.534102 0.045360 0.442150 -0.224390 0.357880 4.458188 -7.460392 2.704502 64.097552 14.636178 7.992886 -140.623035 35.201336 -95.394370 1.979245 -2.386318 -0.110310 0.008090 -0.109580 0.079720 
-0.568990 16.197220 -1.232550 -3.146354 -40.792135 -4.941740 -15.187845 14.281013 2.632892 6.175597 0.064696 -0.770862 -3.423105 7.178026 21.414345 0.189236 5.633956 2.931821 0.228430 0.021180 0.061040 18.095163 -10.835007 2.767727 -9.122520 0.276275 -15.207929 4.961549 -3.617604 6.179909 0.093314 -3.155987 3.465789 0.045930 0.658760 0.368080 -2.815356 -3.039311 -7.056468 4.360959 -3.651199 14.489911 -1.532366 -3.207988 11.356807 3.877834 -0.814493 -8.795447 -2.398777 4.902802 28.136707 -3.055190 7.775720 3.603560 -6.664414 5.851111 4.382271 -67.420325 -31.493003 27.091778 132.399331 -37.964075 -89.128980 -3.940888 3.484578 -0.014050 0.513750 -0.265220 0.373430 -0.387498 -5.554984 3.423718 62.795888 18.691589 8.688495 -138.867926 31.073103 -87.899492 1.936556 -2.491734 -0.124960 0.041990 -0.104590 0.085460 
-0.571730 16.212190 -1.253220 -2.697237 -40.712618 -7.667087 -15.273617 14.405416 2.670833 6.549175 0.409640 1.953278 -3.233562 7.206371 20.597874 0.191979 5.899509 2.882411 0.253740 0.070250 0.057980 18.049378 -10.757107 2.538345 -9.552795 -0.157182 -13.508064 4.562682 -3.941274 8.248464 0.101628 -3.401785 3.382613 0.124510 0.737970 0.399450 -2.566161 -3.554900 -6.963255 2.889562 -3.638235 16.401496 -1.661690 -3.340801 16.442867 3.802235 -0.380183 -9.424478 -1.709315 4.475009 26.041827 -3.729570 7.483040 3.591240 -1.081807 4.683894 5.347016 -63.566531 -38.825294 28.320703 130.024955 -29.944087 -76.858379 -4.060155 3.508289 -0.094150 0.610960 -0.322140 0.390680 -6.011856 -5.046707 3.554638 59.274825 22.259130 8.894384 -136.015079 27.005499 -78.018131 1.894233 -2.641717 -0.138700 0.072500 -0.092400 0.095410 
-0.576140 16.219570 -1.269250 -2.197034 -40.596501 -9.526791 -15.370821 14.602761 2.735670 6.657149 0.629837 3.722576 -2.992463 7.188384 19.942071 0.192104 6.110998 2.841869 0.238760 0.057600 0.035560 17.984334 -10.599151 2.340758 -9.894210 -0.397162 -12.734629 4.214662 -4.171414 10.168402 0.135902 -3.556430 3.322499 0.158700 0.806520 0.426910 -2.198668 -4.307582 -6.964397 1.170929 -3.530558 18.254207 -1.072668 -3.243377 18.583388 3.629525 -0.031305 -9.391069 -1.309583 3.735517 24.676699 -4.434360 6.868180 4.514020 3.732023 4.875093 5.495807 -57.029963 -42.884009 27.513744 127.611524 -23.992433 -66.380887 -4.157666 3.542295 -0.156550 0.693750 -0.383650 0.388200 -10.769412 -5.838724 3.213177 52.595951 22.861044 7.590180 -132.572080 25.151774 -69.713245 1.888241 -2.772182 -0.158460 0.080060 -0.061570 0.098100 
-0.580610 16.216650 -1.286250 -1.491151 -40.322280 -11.044216 -15.462920 14.859293 2.818873 6.537047 0.801367 4.832538 -2.739339 7.184664 19.600041 0.227525 6.267776 2.818920 0.174310 -0.017990 -0.020520 17.908837 -10.407525 2.177254 -10.486896 -0.585173 -12.469847 4.206475 -4.424086 11.883081 0.180149 -3.651447 3.290673 0.132390 0.862220 0.428920 -1.775485 -5.214396 -7.055353 -0.716738 -3.294955 20.592075 -0.197667 -2.953772 18.001774 3.379376 0.182971 -8.905524 -1.316517 2.648081 24.195443 -4.589580 5.624290 6.215770 7.227662 5.091593 4.812372 -47.824463 -43.136683 23.625388 124.574866 -21.097406 -57.936080 -4.267676 3.501895 -0.194730 0.738590 -0.439050 0.375860 -14.083615 -6.514425 2.946182 44.075131 20.137439 4.537647 -129.015871 25.295035 -63.572392 1.939471 -2.831588 -0.180750 0.082050 -0.018420 0.107730 
-0.578400 16.211310 -1.304730 -0.937866 -39.689856 -12.187287 -15.517000 15.098183 2.900469 6.368216 0.894330 5.411611 -2.381895 7.128562 19.494709 0.318874 6.304891 2.822935 0.109030 -0.103030 -0.058450 17.845703 -10.280083 2.080858 -11.165604 -0.773460 -12.401306 4.457953 -4.702754 13.192460 0.201448 -3.702305 3.274257 0.057720 0.859180 0.426940 -1.450061 -5.951358 -7.207070 -1.951961 -3.142176 23.448198 0.208792 -2.698984 15.692928 3.544863 0.278861 -8.420573 -1.632010 1.419460 24.883277 -4.828860 4.439410 8.349350 8.912613 5.284337 3.679542 -36.626498 -40.618946 17.235481 120.756470 -21.848897 -51.669957 -4.384343 3.398059 -0.212610 0.730060 -0.450060 0.360840 -16.223272 -6.809667 3.290421 35.165623 14.651770 1.085611 -125.511340 27.795979 -61.008441 2.052399 -2.832327 -0.165460 0.043880 -0.004800 0.123400 
-0.579370 16.207440 -1.319730 -0.509164 -39.184649 -13.053274 -15.505370 15.209969 2.971164 6.212379 0.983485 5.884802 -2.154716 7.093119 19.491186 0.442363 6.238363 2.841176 0.066650 -0.136510 -0.079650 17.825264 -10.298828 2.060689 -11.751232 -0.977399 -12.457590 4.722878 -4.944037 14.067076 0.192142 -3.715324 3.270814 -0.016080 0.806850 0.405990 -1.360712 -6.187446 -7.348714 -2.456827 -3.327532 25.763044 -0.164586 -2.922127 13.456337 3.870843 0.336740 -8.409172 -2.085354 1.244698 27.231230 -4.700770 4.179290 10.302050 9.090334 5.312662 2.924576 -24.597048 -36.090352 10.121800 116.638259 -24.471769 -47.231296 -4.420772 3.293797 -0.216790 0.678010 -0.413550 0.351000 -16.928947 -6.590794 4.015953 26.601710 8.866124 -0.987795 -122.529521 31.501331 -61.153271 2.185659 -2.769567 -0.122000 -0.002030 -0.024920 0.148610 
-0.583640 16.206780 -1.334250 -0.196489 -38.789005 -13.494328 -15.463167 15.219945 3.018888 6.015071 1.020964 5.994721 -1.952941 7.006129 19.583272 0.508791 6.111860 2.857819 0.082870 -0.113550 -0.048390 17.827084 -10.410784 2.089264 -12.111128 -1.106043 -12.814051 4.848209 -5.112945 14.674737 0.149157 -3.683378 3.277015 -0.058220 0.718010 0.395990 -1.403189 -6.047911 -7.454158 -2.556349 -3.545796 26.970152 -0.786332 -3.260491 12.103550 4.231906 0.593315 -8.679786 -2.274255 1.591631 31.029377 -4.787240 4.624340 10.960480 8.188036 4.654140 2.204109 -13.189551 -29.837729 4.792155 112.353164 -28.554164 -45.069284 -4.353101 3.203977 -0.169930 0.603780 -0.332540 0.351380 -16.547972 -5.684338 4.964378 18.148192 2.681403 -1.974425 -120.689637 35.989053 -63.782586 2.273262 -2.650668 -0.075590 -0.037650 -0.069000 0.152630 
-0.588720 16.210950 -1.342070 -0.232776 -38.904051 -13.516615 -15.394246 15.164857 3.055172 6.040416 0.998059 6.017627 -2.033254 7.000372 19.615421 0.550522 5.983733 2.863831 0.123610 -0.073310 0.014910 17.853989 -10.566360 2.150909 -12.008898 -1.142026 -13.419883 4.856336 -5.200044 15.249174 0.109232 -3.618881 3.285882 -0.080520 0.604890 0.375760 -1.548384 -5.685566 -7.536486 -1.959225 -4.013356 27.504609 -1.767728 -3.753531 11.478706 4.588034 0.904504 -9.192881 -2.279703 2.049175 35.414325 -4.851700 5.247320 11.512400 7.311620 3.362045 1.686099 -3.474552 -22.107694 1.673466 108.358393 -33.339200 -44.443931 -4.226609 3.138608 -0.115150 0.518620 -0.251760 0.342120 -16.189278 -4.342291 5.980638 10.054689 -3.605801 -1.730576 -119.874281 41.230575 -68.382881 2.348697 -2.506769 -0.034160 -0.079540 -0.124710 0.138150 
-0.593240 16.219070 -1.344230 -0.365823 -38.712166 -12.901568 -15.327162 15.051605 3.051279 5.845877 0.885107 5.423133 -1.846417 6.834570 19.704421 0.500570 5.788304 2.883301 0.173050 -0.022960 0.104130 17.885612 -10.739022 2.238582 -11.875940 -1.100519 -14.408318 4.948437 -5.248054 15.569996 0.069901 -3.518714 3.290190 -0.070260 0.488120 0.334450 -1.751189 -5.151439 -7.565238 -1.330797 -4.537049 26.551582 -2.633837 -4.335739 12.064038 4.774342 1.768016 -9.833562 -1.083741 2.272751 40.461404 -4.970860 6.067420 10.908220 7.176223 1.831329 1.585836 3.579377 -14.613634 0.639917 106.084671 -37.843513 -45.409938 -4.088995 3.035563 -0.029480 0.429450 -0.169420 0.315810 -16.218582 -3.410506 6.879942 4.028582 -8.148219 -0.390784 -120.054741 46.338604 -73.897650 2.404094 -2.313888 -0.030780 -0.081100 -0.170360 0.097070 
